<svg width="24" height="24" viewBox="0 0 24 24" fill="none" xmlns="http://www.w3.org/2000/svg">
<path d="M15.2002 5V4V5ZM18.3623 5.32715L18.8164 4.4362L18.8163 4.43614L18.3623 5.32715ZM19.6729 6.6377L20.5639 6.18371L20.5638 6.18359L19.6729 6.6377ZM20 9.7998H21H20ZM20 12.2002H21H20ZM19.6729 15.3623L20.5638 15.8164L20.5639 15.8163L19.6729 15.3623ZM18.3623 16.6729L18.8163 17.5639L18.8164 17.5638L18.3623 16.6729ZM15.2002 17V18V17ZM4.76855 20.2314L4.06145 19.5243H4.06145L4.76855 20.2314ZM4 19.9141H3L3 19.915L4 19.9141ZM4 9.7998H3H4ZM4.32715 6.6377L3.4362 6.18359L3.43614 6.1837L4.32715 6.6377ZM5.6377 5.32715L5.1837 4.43614L5.18359 4.4362L5.6377 5.32715ZM8.7998 5V4V5ZM7.70711 17.2929L7 16.5858L7.70711 17.2929ZM15.2002 5V6C16.0566 6 16.639 6.00082 17.0891 6.03763C17.5276 6.07349 17.7519 6.13845 17.9083 6.21816L18.3623 5.32715L18.8163 4.43614C18.331 4.18887 17.8143 4.09026 17.2521 4.04429C16.7016 3.99927 16.0238 4 15.2002 4V5ZM18.3623 5.32715L17.9082 6.2181C18.2844 6.40981 18.5902 6.71565 18.7819 7.0918L19.6729 6.6377L20.5638 6.18359C20.1804 5.4313 19.5687 4.81963 18.8164 4.4362L18.3623 5.32715ZM19.6729 6.6377L18.7818 7.09169C18.8615 7.24811 18.9265 7.47241 18.9624 7.91089C18.9992 8.361 19 8.94335 19 9.7998H20H21C21 8.97623 21.0007 8.29838 20.9557 7.74787C20.9097 7.18573 20.8111 6.66899 20.5639 6.18371L19.6729 6.6377ZM20 9.7998H19V12.2002H20H21V9.7998H20ZM20 12.2002H19C19 13.0566 18.9992 13.639 18.9624 14.0891C18.9265 14.5276 18.8615 14.7519 18.7818 14.9083L19.6729 15.3623L20.5639 15.8163C20.8111 15.331 20.9097 14.8143 20.9557 14.2521C21.0007 13.7016 21 13.0238 21 12.2002H20ZM19.6729 15.3623L18.7819 14.9082C18.5902 15.2844 18.2844 15.5902 17.9082 15.7819L18.3623 16.6729L18.8164 17.5638C19.5687 17.1804 20.1804 16.5687 20.5638 15.8164L19.6729 15.3623ZM18.3623 16.6729L17.9083 15.7818C17.7519 15.8615 17.5276 15.9265 17.0891 15.9624C16.639 15.9992 16.0566 16 15.2002 16V17V18C16.0238 18 16.7016 18.0007 17.2521 17.9557C17.8143 17.9097 18.331 17.8111 18.8163 17.5639L18.3623 16.6729ZM15.2002 17V16H8.41421V17V18H15.2002V17ZM7.70711 17.2929L7 16.5858L4.06145 19.5243L4.76855 20.2314L5.47566 20.9386L8.41421 18L7.70711 17.2929ZM4.76855 20.2314L4.06145 19.5243C4.40614 19.1796 4.99955 19.421 5 19.9131L4 19.9141L3 19.915C3.00119 21.2083 4.56422 21.85 5.47566 20.9386L4.76855 20.2314ZM4 19.9141H5V9.7998H4H3V19.9141H4ZM4 9.7998H5C5 8.94335 5.00082 8.361 5.03763 7.91089C5.07349 7.47241 5.13845 7.24811 5.21815 7.09169L4.32715 6.6377L3.43614 6.1837C3.18887 6.66899 3.09026 7.18573 3.04429 7.74787C2.99927 8.29838 3 8.97623 3 9.7998H4ZM4.32715 6.6377L5.2181 7.0918C5.40981 6.71565 5.71565 6.40981 6.0918 6.2181L5.6377 5.32715L5.18359 4.4362C4.4313 4.81963 3.81963 5.4313 3.4362 6.18359L4.32715 6.6377ZM5.6377 5.32715L6.09169 6.21815C6.24811 6.13845 6.47241 6.07349 6.91089 6.03763C7.361 6.00082 7.94335 6 8.7998 6V5V4C7.97623 4 7.29838 3.99927 6.74787 4.04429C6.18573 4.09026 5.66899 4.18887 5.1837 4.43614L5.6377 5.32715ZM8.7998 5V6H15.2002V5V4H8.7998V5ZM8.41421 17V16C7.88378 16 7.37507 16.2107 7 16.5858L7.70711 17.2929L8.41421 18V18V17Z" fill="#0EA5E9"/>
<path d="M8 9L16 9" stroke="#0EA5E9" stroke-width="2" stroke-linecap="round" stroke-linejoin="round"/>
<path d="M8 13L13 13" stroke="#0EA5E9" stroke-width="2" stroke-linecap="round" stroke-linejoin="round"/>
</svg>
