<svg width="24" height="24" viewBox="0 0 24 24" fill="none" xmlns="http://www.w3.org/2000/svg">
<path d="M12.3984 17.8037L12.8589 18.6914L12.8589 18.6914L12.3984 17.8037ZM11.6016 17.8037L11.1411 18.6914L11.1411 18.6914L11.6016 17.8037ZM12 2V3C15.3137 3 18 5.68629 18 9H19H20C20 4.58172 16.4183 1 12 1V2ZM19 9H18C18 11.1456 16.9081 12.9156 15.5453 14.2902C14.1835 15.6639 12.6348 16.5545 11.938 16.916L12.3984 17.8037L12.8589 18.6914C13.6455 18.2833 15.3976 17.28 16.9657 15.6983C18.5329 14.1174 20 11.8703 20 9H19ZM12.3984 17.8037L11.938 16.916C11.9521 16.9087 11.9738 16.9021 12 16.9021C12.0262 16.9021 12.0479 16.9087 12.062 16.916L11.6016 17.8037L11.1411 18.6914C11.6827 18.9723 12.3173 18.9723 12.8589 18.6914L12.3984 17.8037ZM11.6016 17.8037L12.062 16.916C11.3652 16.5545 9.81648 15.6639 8.45465 14.2902C7.0919 12.9156 6 11.1456 6 9H5H4C4 11.8703 5.46714 14.1174 7.0343 15.6983C8.60239 17.28 10.3545 18.2833 11.1411 18.6914L11.6016 17.8037ZM5 9H6C6 5.68629 8.68629 3 12 3V2V1C7.58172 1 4 4.58172 4 9H5ZM12 6V5C9.79086 5 8 6.79086 8 9H9H10C10 7.89543 10.8954 7 12 7V6ZM9 9H8C8 11.2091 9.79086 13 12 13V12V11C10.8954 11 10 10.1046 10 9H9ZM12 12V13C14.2091 13 16 11.2091 16 9H15H14C14 10.1046 13.1046 11 12 11V12ZM15 9H16C16 6.79086 14.2091 5 12 5V6V7C13.1046 7 14 7.89543 14 9H15Z" fill="#0EA5E9"/>
<path d="M19.7942 17.5C20.5841 17.9561 21 18.4734 21 19C21 19.5266 20.5841 20.0439 19.7942 20.5C19.0043 20.9561 17.8682 21.3348 16.5 21.5981C15.1318 21.8614 13.5798 22 12 22C10.4202 22 8.86817 21.8614 7.5 21.5981C6.13183 21.3348 4.99569 20.9561 4.20577 20.5C3.41586 20.0439 3 19.5266 3 19C3 18.4734 3.41586 17.9561 4.20577 17.5" stroke="#0EA5E9" stroke-width="2" stroke-linecap="round"/>
</svg>
